<?xml version="1.0" encoding="UTF-8"?>
<svg version="1.1" xmlns="http://www.w3.org/2000/svg" width="225" height="225">
<path d="M0 0 C74.25 0 148.5 0 225 0 C225 74.25 225 148.5 225 225 C150.75 225 76.5 225 0 225 C0 150.75 0 76.5 0 0 Z " fill="#FDFDFD" transform="translate(0,0)"/>
<path d="M0 0 C1.23250992 -0.00524185 2.46501984 -0.0104837 3.73487854 -0.0158844 C6.33276621 -0.02228747 8.93068293 -0.02098995 11.52856445 -0.01245117 C15.48767056 -0.00394115 19.44533302 -0.03273026 23.40429688 -0.06445312 C25.93619749 -0.0660654 28.46810064 -0.06548711 31 -0.0625 C32.76288612 -0.07935097 32.76288612 -0.07935097 34.56138611 -0.09654236 C43.96575013 -0.01739699 51.57461834 2.12603196 58.57569885 8.63647461 C64.5612373 15.85232779 64.67018163 24.81270855 64.6328125 33.74609375 C64.63901108 34.99559814 64.64520966 36.24510254 64.65159607 37.5324707 C64.6604647 40.82990289 64.64947097 44.12657867 64.63250732 47.4239502 C64.6289084 49.43239177 64.64284937 51.43991055 64.66333008 53.44824219 C64.7003522 57.33962525 64.70282443 61.22956749 64.6953125 65.12109375 C64.70857071 66.30678955 64.72182892 67.49248535 64.73548889 68.71411133 C64.63812196 77.47862188 62.6935554 84.0726283 57.0390625 90.87109375 C56.40871094 91.38671875 55.77835937 91.90234375 55.12890625 92.43359375 C54.50113281 92.96984375 53.87335938 93.50609375 53.2265625 94.05859375 C48.75375477 96.90566124 44.32906234 97.68439673 39.09619141 97.70825195 C37.36376694 97.72254997 37.36376694 97.72254997 35.59634399 97.73713684 C33.74461075 97.73576973 33.74461075 97.73576973 31.85546875 97.734375 C29.93231339 97.74080269 29.93231339 97.74080269 27.9703064 97.74736023 C25.26206312 97.75479941 22.55395025 97.7545483 19.84570312 97.74926758 C16.39376605 97.74348034 12.94236683 97.7603964 9.49051857 97.78361225 C6.17464724 97.80198351 2.85889055 97.79816237 -0.45703125 97.796875 C-2.3026918 97.81068962 -2.3026918 97.81068962 -4.18563843 97.82478333 C-12.44274142 97.78049348 -18.21423958 96.93700521 -25.18359375 92.24609375 C-30.56163924 86.74581995 -33.03782291 80.3640962 -33.1105957 72.7121582 C-33.12343094 71.53696121 -33.13626617 70.36176422 -33.14949036 69.1509552 C-33.15687729 67.87910873 -33.16426422 66.60726227 -33.171875 65.296875 C-33.17994675 63.98833054 -33.18801849 62.67978607 -33.19633484 61.33158875 C-33.21135168 58.55838145 -33.22119331 55.78519966 -33.22875977 53.01196289 C-33.23979544 49.47578739 -33.27416559 45.94024615 -33.31393147 42.40429401 C-33.34652035 39.0143476 -33.35088739 35.62446588 -33.359375 32.234375 C-33.37688309 30.97264969 -33.39439117 29.71092438 -33.41242981 28.41096497 C-33.39218515 20.16964471 -32.51426369 14.6837587 -27.07421875 8.2265625 C-26.4503125 7.69675781 -25.82640625 7.16695312 -25.18359375 6.62109375 C-24.57 6.07839844 -23.95640625 5.53570312 -23.32421875 4.9765625 C-15.80163147 0.12129783 -8.71866506 -0.02174063 0 0 Z " fill="#12121A" transform="translate(94.93359375,14.56640625)"/>
<path d="M0 0 C2.64 0 5.28 0 8 0 C8.43699219 0.99580078 8.43699219 0.99580078 8.8828125 2.01171875 C12.03956288 8.81163701 14.72564383 12.50662557 21.25 16.3125 C28.94200357 18.23550089 34.96560616 17.27596416 41.87109375 13.41796875 C46.97379283 10.01929028 48.8414335 5.50434458 51 0 C57.15234375 -0.09765625 57.15234375 -0.09765625 59 0 C60.65394117 1.65394117 60.12999683 3.60315413 60.1328125 5.875 C60.13474609 7.35226563 60.13474609 7.35226563 60.13671875 8.859375 C60.13285156 9.89578125 60.12898438 10.9321875 60.125 12 C60.13080078 13.55460937 60.13080078 13.55460937 60.13671875 15.140625 C60.13542969 16.12546875 60.13414062 17.1103125 60.1328125 18.125 C60.13168457 19.03507812 60.13055664 19.94515625 60.12939453 20.8828125 C60 23 60 23 59 24 C56.32941149 24.14115161 53.67567762 24.04247107 51 24 C50.67 22.35 50.34 20.7 50 19 C48.98679687 19.63228516 48.98679687 19.63228516 47.953125 20.27734375 C47.06109375 20.82519531 46.1690625 21.37304688 45.25 21.9375 C44.36828125 22.48277344 43.4865625 23.02804688 42.578125 23.58984375 C36.24129369 27.05589845 29.04212169 26.75634884 22 26 C12.31046274 22.92881334 6.31487467 17.34657205 1.0625 8.875 C-0.1013307 5.72581104 -0.23792744 3.33098409 0 0 Z " fill="#268E70" transform="translate(81,68)"/>
<path d="M0 0 C7.21454524 4.4146766 12.79046084 10.06061366 16 18 C16.1875 20.875 16.1875 20.875 16 23 C13.36 23 10.72 23 8 23 C7.35165346 21.730447 6.70642185 20.45930294 6.0625 19.1875 C5.52302734 18.12595703 5.52302734 18.12595703 4.97265625 17.04296875 C4 15 4 15 3 12 C1.30230766 10.89831016 1.30230766 10.89831016 -1 10 C-1.99 9.46375 -2.98 8.9275 -4 8.375 C-10.10478243 5.79068606 -17.26306219 6.05451239 -23.4375 8.1875 C-29.30023454 12.33431224 -32.06538795 16.58732922 -35 23 C-37.97 23 -40.94 23 -44 23 C-44 15.41 -44 7.82 -44 0 C-41.03 0 -38.06 0 -35 0 C-34.67 1.65 -34.34 3.3 -34 5 C-33.38125 4.4225 -32.7625 3.845 -32.125 3.25 C-22.21402419 -3.88590259 -11.10243748 -5.35081373 0 0 Z " fill="#F4A123" transform="translate(124,36)"/>
<path d="M0 0 C4.46740285 0.66535787 6.91775691 2.1157826 9.9375 5.4375 C10.2675 4.4475 10.5975 3.4575 10.9375 2.4375 C14.45003146 0.09581236 15.80219356 -0.05873677 19.9375 0.4375 C22.63740662 2.23743774 24.4793865 3.521273 25.9375 6.4375 C26.02122659 7.95898326 26.04480027 9.48405778 26.03515625 11.0078125 C26.03193359 11.90371094 26.02871094 12.79960937 26.02539062 13.72265625 C26.01282227 15.12837891 26.01282227 15.12837891 26 16.5625 C25.99548828 17.50738281 25.99097656 18.45226562 25.98632812 19.42578125 C25.97452357 21.76308387 25.95805759 24.10026061 25.9375 26.4375 C23.9575 26.4375 21.9775 26.4375 19.9375 26.4375 C19.87691406 25.14972656 19.81632812 23.86195313 19.75390625 22.53515625 C19.66951753 20.85675841 19.5848687 19.17837364 19.5 17.5 C19.46068359 16.64986328 19.42136719 15.79972656 19.38085938 14.92382812 C19.33896484 14.11494141 19.29707031 13.30605469 19.25390625 12.47265625 C19.19891968 11.34935913 19.19891968 11.34935913 19.14282227 10.20336914 C19.11978937 8.41288674 19.11978937 8.41288674 17.9375 7.4375 C14.4375 7.27083333 14.4375 7.27083333 10.9375 7.4375 C9.42328999 8.95171001 9.72440144 10.36222768 9.62109375 12.47265625 C9.57919922 13.28154297 9.53730469 14.09042969 9.49414062 14.92382812 C9.45482422 15.77396484 9.41550781 16.62410156 9.375 17.5 C9.33181641 18.35400391 9.28863281 19.20800781 9.24414062 20.08789062 C9.13773298 22.20422037 9.03708269 24.32083813 8.9375 26.4375 C6.9575 26.4375 4.9775 26.4375 2.9375 26.4375 C2.87691406 25.14972656 2.81632812 23.86195313 2.75390625 22.53515625 C2.66951753 20.85675841 2.5848687 19.17837364 2.5 17.5 C2.46068359 16.64986328 2.42136719 15.79972656 2.38085938 14.92382812 C2.33896484 14.11494141 2.29707031 13.30605469 2.25390625 12.47265625 C2.21724854 11.7237915 2.18059082 10.97492676 2.14282227 10.20336914 C2.11978937 8.41288674 2.11978937 8.41288674 0.9375 7.4375 C-2.5625 7.27083333 -2.5625 7.27083333 -6.0625 7.4375 C-7.57671001 8.95171001 -7.27559856 10.36222768 -7.37890625 12.47265625 C-7.42080078 13.28154297 -7.46269531 14.09042969 -7.50585938 14.92382812 C-7.54517578 15.77396484 -7.58449219 16.62410156 -7.625 17.5 C-7.66818359 18.35400391 -7.71136719 19.20800781 -7.75585938 20.08789062 C-7.86226702 22.20422037 -7.96291731 24.32083813 -8.0625 26.4375 C-10.3725 26.4375 -12.6825 26.4375 -15.0625 26.4375 C-15.0625 18.1875 -15.0625 9.9375 -15.0625 1.4375 C-13.0825 1.4375 -11.1025 1.4375 -9.0625 1.4375 C-8.7325 2.7575 -8.4025 4.0775 -8.0625 5.4375 C-7.36125 4.6125 -6.66 3.7875 -5.9375 2.9375 C-3.0625 0.4375 -3.0625 0.4375 0 0 Z " fill="#100F14" transform="translate(102.0625,128.5625)"/>
<path d="M0 0 C3.76905546 0.69227549 6.03895757 2.25884863 9.0625 4.5625 C9.76375 3.9025 10.465 3.2425 11.1875 2.5625 C14.58710766 0.19755554 16.00837851 -0.11318691 20.0625 0.5625 C22.76240662 2.36243774 24.6043865 3.646273 26.0625 6.5625 C26.14622659 8.08398326 26.16980027 9.60905778 26.16015625 11.1328125 C26.15693359 12.02871094 26.15371094 12.92460937 26.15039062 13.84765625 C26.13782227 15.25337891 26.13782227 15.25337891 26.125 16.6875 C26.12048828 17.63238281 26.11597656 18.57726562 26.11132812 19.55078125 C26.09952357 21.88808387 26.08305759 24.22526061 26.0625 26.5625 C24.0825 26.5625 22.1025 26.5625 20.0625 26.5625 C20.00191406 25.35851562 19.94132812 24.15453125 19.87890625 22.9140625 C19.79450268 21.33852923 19.70985459 19.76300904 19.625 18.1875 C19.58568359 17.3934375 19.54636719 16.599375 19.50585938 15.78125 C19.37356596 11.53648779 19.37356596 11.53648779 18.0625 7.5625 C15.72955225 7.52008277 13.39547433 7.52157063 11.0625 7.5625 C9.54828999 9.07671001 9.84940144 10.48722768 9.74609375 12.59765625 C9.70419922 13.40654297 9.66230469 14.21542969 9.61914062 15.04882812 C9.57982422 15.89896484 9.54050781 16.74910156 9.5 17.625 C9.45681641 18.47900391 9.41363281 19.33300781 9.36914062 20.21289062 C9.26273298 22.32922037 9.16208269 24.44583813 9.0625 26.5625 C7.0825 26.5625 5.1025 26.5625 3.0625 26.5625 C3.00191406 25.35851562 2.94132812 24.15453125 2.87890625 22.9140625 C2.79450268 21.33852923 2.70985459 19.76300904 2.625 18.1875 C2.58568359 17.3934375 2.54636719 16.599375 2.50585938 15.78125 C2.37356596 11.53648779 2.37356596 11.53648779 1.0625 7.5625 C-2.35392759 7.31234127 -2.35392759 7.31234127 -5.9375 7.5625 C-8.41794315 11.28316472 -8.38131173 14.42790474 -8.5625 18.75 C-8.60117188 19.49958984 -8.63984375 20.24917969 -8.6796875 21.02148438 C-8.77378216 22.86809199 -8.85672319 24.7152619 -8.9375 26.5625 C-10.9175 26.5625 -12.8975 26.5625 -14.9375 26.5625 C-14.9375 18.3125 -14.9375 10.0625 -14.9375 1.5625 C-12.9575 1.5625 -10.9775 1.5625 -8.9375 1.5625 C-8.6075 2.8825 -8.2775 4.2025 -7.9375 5.5625 C-7.23625 4.7375 -6.535 3.9125 -5.8125 3.0625 C-2.9375 0.5625 -2.9375 0.5625 0 0 Z " fill="#0F0F13" transform="translate(147.9375,128.4375)"/>
<path d="M0 0 C5.53846154 3.07692308 5.53846154 3.07692308 7 6 C7.08372659 7.52148326 7.10730027 9.04655778 7.09765625 10.5703125 C7.09443359 11.46621094 7.09121094 12.36210937 7.08789062 13.28515625 C7.07951172 14.22230469 7.07113281 15.15945312 7.0625 16.125 C7.05798828 17.06988281 7.05347656 18.01476562 7.04882812 18.98828125 C7.03702357 21.32558387 7.02055759 23.66276061 7 26 C5.35 26 3.7 26 2 26 C1.67 24.68 1.34 23.36 1 22 C0.690625 22.639375 0.38125 23.27875 0.0625 23.9375 C-2.72445455 26.72445455 -4.98267572 26.90522317 -8.8359375 27.15625 C-11 27 -11 27 -13.5625 25.5 C-15.5518949 22.04018277 -15.63093128 19.92579463 -15 16 C-12.02925816 12.94896784 -9.31045272 11.11044229 -4.95703125 10.90234375 C-4.24933594 10.91394531 -3.54164063 10.92554688 -2.8125 10.9375 C-0.9253125 10.9684375 -0.9253125 10.9684375 1 11 C0.34 9.35 -0.32 7.7 -1 6 C-3.41619823 5.74969023 -3.41619823 5.74969023 -6 6 C-6.99 7.485 -6.99 7.485 -8 9 C-11.125 9.1875 -11.125 9.1875 -14 9 C-13.4568634 5.19804378 -11.84334437 3.49869657 -9 1 C-5.89046621 -0.5547669 -3.43733239 -0.28644437 0 0 Z " fill="#18171C" transform="translate(193,129)"/>
<path d="M0 0 C3.5386994 1.65139305 4.81070153 2.71605229 7 6 C7.22705078 8.17651367 7.22705078 8.17651367 7.1953125 10.66796875 C7.18886719 11.56064453 7.18242188 12.45332031 7.17578125 13.37304688 C7.15902344 14.30181641 7.14226562 15.23058594 7.125 16.1875 C7.11597656 17.12787109 7.10695313 18.06824219 7.09765625 19.03710938 C7.07409056 21.35832968 7.04119116 23.67903644 7 26 C5.35 26 3.7 26 2 26 C1.67 24.68 1.34 23.36 1 22 C0.608125 22.65097656 0.21625 23.30195313 -0.1875 23.97265625 C-2 26 -2 26 -4.375 26.49609375 C-5.24125 26.47675781 -6.1075 26.45742187 -7 26.4375 C-7.86625 26.43621094 -8.7325 26.43492187 -9.625 26.43359375 C-12.43455126 25.92066581 -13.340749 25.29742446 -15 23 C-15.5 19.5625 -15.5 19.5625 -15 16 C-12.02925816 12.94896784 -9.31045272 11.11044229 -4.95703125 10.90234375 C-4.24933594 10.91394531 -3.54164062 10.92554688 -2.8125 10.9375 C-0.9253125 10.9684375 -0.9253125 10.9684375 1 11 C0.34 9.35 -0.32 7.7 -1 6 C-3.41619823 5.74969023 -3.41619823 5.74969023 -6 6 C-6.99 7.485 -6.99 7.485 -8 9 C-10.625 9.1875 -10.625 9.1875 -13 9 C-12.71897086 5.62765029 -12.19628348 4.21360261 -9.875 1.6875 C-6.2426172 -0.44455077 -4.15582055 -0.51947757 0 0 Z " fill="#17171B" transform="translate(76,129)"/>
<path d="M0 0 C2.65563802 1.8968843 3.57242527 3.14485055 5 6 C5.08342159 7.44848582 5.10732861 8.90070869 5.09765625 10.3515625 C5.09443359 11.20234375 5.09121094 12.053125 5.08789062 12.9296875 C5.07951172 13.81914062 5.07113281 14.70859375 5.0625 15.625 C5.05798828 16.5221875 5.05347656 17.419375 5.04882812 18.34375 C5.03702591 20.56256648 5.02056155 22.78125018 5 25 C3.35 25 1.7 25 0 25 C0 23.68 0 22.36 0 21 C-0.66 21 -1.32 21 -2 21 C-2.28875 21.639375 -2.5775 22.27875 -2.875 22.9375 C-4 25 -4 25 -6 26 C-9.5348152 26.26183816 -12.16217291 26.36520668 -15.4375 24.9375 C-17 23 -17 23 -17.5 19.5625 C-16.9327973 15.52118076 -16.18229789 14.43352192 -13 12 C-10.47524538 10.73762269 -8.68799534 10.90143596 -5.875 10.9375 C-4.96492188 10.94652344 -4.05484375 10.95554688 -3.1171875 10.96484375 C-2.41851562 10.97644531 -1.71984375 10.98804688 -1 11 C-1.33 9.35 -1.66 7.7 -2 6 C-4.31 6 -6.62 6 -9 6 C-9.33 6.66 -9.66 7.32 -10 8 C-11.98 8 -13.96 8 -16 8 C-15.64607333 5.52251333 -14.935181 3.89393254 -13.625 1.75 C-9.39279902 -1.07146732 -4.92845435 -0.76398532 0 0 Z " fill="#131217" transform="translate(105,169)"/>
<path d="M0 0 C3.99504918 0.74907172 5.43882139 2.48908567 8 5.5625 C9.17426264 7.91102528 9.11508173 9.30024065 9.09765625 11.9140625 C9.09443359 12.76484375 9.09121094 13.615625 9.08789062 14.4921875 C9.07951172 15.38164062 9.07113281 16.27109375 9.0625 17.1875 C9.05798828 18.0846875 9.05347656 18.981875 9.04882812 19.90625 C9.03702591 22.12506648 9.02056155 24.34375018 9 26.5625 C7.02 26.5625 5.04 26.5625 3 26.5625 C2.95101562 25.35851562 2.90203125 24.15453125 2.8515625 22.9140625 C2.77653657 21.33851802 2.70098867 19.76299834 2.625 18.1875 C2.5940625 17.3934375 2.563125 16.599375 2.53125 15.78125 C2.48183579 11.19582625 2.48183579 11.19582625 0 7.5625 C-3 7.22916667 -3 7.22916667 -6 7.5625 C-9.02093215 10.58343215 -8.46676834 14.12622072 -8.625 18.1875 C-8.66367187 18.98929688 -8.70234375 19.79109375 -8.7421875 20.6171875 C-8.83653931 22.59857556 -8.91936215 24.58050645 -9 26.5625 C-10.98 26.5625 -12.96 26.5625 -15 26.5625 C-15 18.3125 -15 10.0625 -15 1.5625 C-13.02 1.5625 -11.04 1.5625 -9 1.5625 C-8.67 2.5525 -8.34 3.5425 -8 4.5625 C-7.29875 3.9025 -6.5975 3.2425 -5.875 2.5625 C-3 0.5625 -3 0.5625 0 0 Z " fill="#1B1A1F" transform="translate(48,128.4375)"/>
<path d="M0 0 C2.31 0 4.62 0 7 0 C7.8394882 2.10171867 8.67139656 4.20646625 9.5 6.3125 C9.9640625 7.48425781 10.428125 8.65601563 10.90625 9.86328125 C12 13 12 13 12 16 C12.66 16 13.32 16 14 16 C14.12246094 15.29488281 14.24492188 14.58976563 14.37109375 13.86328125 C15.03405201 10.84496817 15.98175575 8.08110558 17.0625 5.1875 C17.42472656 4.21167969 17.78695312 3.23585937 18.16015625 2.23046875 C18.43730469 1.49441406 18.71445313 0.75835937 19 0 C21.31 0 23.62 0 26 0 C24.421487 3.8353356 22.83631685 7.66788626 21.25 11.5 C20.8065625 12.57765625 20.363125 13.6553125 19.90625 14.765625 C17.47324415 20.63346263 14.92829728 26.36234356 12 32 C10.02 32 8.04 32 6 32 C6.495 30.9790625 6.495 30.9790625 7 29.9375 C9.50260217 22.58610613 7.18660137 17.29216197 4 10.6875 C3.2470008 9.08864866 2.49685247 7.48845056 1.75 5.88671875 C1.24726562 4.83810669 1.24726562 4.83810669 0.734375 3.76831055 C0 2 0 2 0 0 Z " fill="#17161B" transform="translate(60,169)"/>
<path d="M0 0 C1.32 0 2.64 0 4 0 C4 1.98 4 3.96 4 6 C6.64 6 9.28 6 12 6 C12 7.32 12 8.64 12 10 C9.36 10 6.72 10 4 10 C4.33 14.95 4.66 19.9 5 25 C5.99 25 6.98 25 8 25 C8.66 23.35 9.32 21.7 10 20 C11.32 20 12.64 20 14 20 C13.51714678 27.36351166 13.51714678 27.36351166 11.375 30 C8.06651697 31.39304549 5.5504853 31.38732567 2 31 C-0.61593153 29.16884793 -0.96989455 28.09031634 -2 25 C-2.07029121 22.42734182 -2.09370832 19.88358569 -2.0625 17.3125 C-2.05798828 16.61060547 -2.05347656 15.90871094 -2.04882812 15.18554688 C-2.03706927 13.45699462 -2.01913454 11.72848635 -2 10 C-2.99 10 -3.98 10 -5 10 C-5 8.68 -5 7.36 -5 6 C-4.01 5.67 -3.02 5.34 -2 5 C-0.78130071 2.49552484 -0.78130071 2.49552484 0 0 Z " fill="#111116" transform="translate(118,164)"/>
<path d="M0 0 C2.8125 0.4375 2.8125 0.4375 4.8125 2.4375 C1.73632812 2.73046875 1.73632812 2.73046875 -1.33984375 3.0234375 C-1.94957031 3.16007813 -2.55929688 3.29671875 -3.1875 3.4375 C-3.5175 4.0975 -3.8475 4.7575 -4.1875 5.4375 C-3.1975 5.7675 -2.2075 6.0975 -1.1875 6.4375 C-3.1675 7.0975 -5.1475 7.7575 -7.1875 8.4375 C-7.5175 14.3775 -7.8475 20.3175 -8.1875 26.4375 C-10.4975 26.4375 -12.8075 26.4375 -15.1875 26.4375 C-15.1875 18.1875 -15.1875 9.9375 -15.1875 1.4375 C-13.2075 1.4375 -11.2275 1.4375 -9.1875 1.4375 C-8.8575 2.7575 -8.5275 4.0775 -8.1875 5.4375 C-7.48625 4.6125 -6.785 3.7875 -6.0625 2.9375 C-3.1875 0.4375 -3.1875 0.4375 0 0 Z " fill="#252529" transform="translate(102.1875,128.5625)"/>
<path d="M0 0 C1.98 0 3.96 0 6 0 C6.33 0.99 6.66 1.98 7 3 C7.5775 2.505 8.155 2.01 8.75 1.5 C11 0 11 0 15 0 C15 1.98 15 3.96 15 6 C13.2984375 6.7115625 13.2984375 6.7115625 11.5625 7.4375 C8.24259834 8.63622083 8.24259834 8.63622083 7 10 C6.76346477 12.52596259 6.57826308 15.03107207 6.4375 17.5625 C6.39431641 18.27341797 6.35113281 18.98433594 6.30664062 19.71679688 C6.20028223 21.47761912 6.09961154 23.2387832 6 25 C4.02 25 2.04 25 0 25 C0 16.75 0 8.5 0 0 Z " fill="#16151A" transform="translate(138,169)"/>
<path d="M0 0 C2.8125 0.4375 2.8125 0.4375 4.8125 2.4375 C3.85537109 2.51097656 3.85537109 2.51097656 2.87890625 2.5859375 C2.05261719 2.66070312 1.22632813 2.73546875 0.375 2.8125 C-0.86056641 2.91691406 -0.86056641 2.91691406 -2.12109375 3.0234375 C-3.14396484 3.22839844 -3.14396484 3.22839844 -4.1875 3.4375 C-4.5175 4.0975 -4.8475 4.7575 -5.1875 5.4375 C-3.8675 5.7675 -2.5475 6.0975 -1.1875 6.4375 C-2.156875 6.72625 -3.12625 7.015 -4.125 7.3125 C-7.29414203 8.07964682 -7.29414203 8.07964682 -8.1875 10.4375 C-8.4197646 13.15012116 -8.60686235 15.84523126 -8.75 18.5625 C-8.79318359 19.31660156 -8.83636719 20.07070312 -8.88085938 20.84765625 C-8.9869832 22.71071888 -9.08775001 24.57408524 -9.1875 26.4375 C-11.1675 26.4375 -13.1475 26.4375 -15.1875 26.4375 C-15.1875 18.1875 -15.1875 9.9375 -15.1875 1.4375 C-13.2075 1.4375 -11.2275 1.4375 -9.1875 1.4375 C-8.8575 2.7575 -8.5275 4.0775 -8.1875 5.4375 C-7.48625 4.6125 -6.785 3.7875 -6.0625 2.9375 C-3.1875 0.4375 -3.1875 0.4375 0 0 Z " fill="#1A1A1F" transform="translate(148.1875,128.5625)"/>
<path d="M0 0 C1.98 0 3.96 0 6 0 C6 8.25 6 16.5 6 25 C4.02 25 2.04 25 0 25 C0 16.75 0 8.5 0 0 Z " fill="#111116" transform="translate(160,169)"/>
<path d="M0 0 C1.65 0 3.3 0 5 0 C5 1.65 5 3.3 5 5 C5.66 5 6.32 5 7 5 C6.67 11.6 6.34 18.2 6 25 C4.02 25 2.04 25 0 25 C0 16.75 0 8.5 0 0 Z " fill="#0E0D12" transform="translate(33,130)"/>
<path d="M0 0 C0 0.66 0 1.32 0 2 C-4.455 3.485 -4.455 3.485 -9 5 C-9 6.32 -9 7.64 -9 9 C-6.03 9 -3.06 9 0 9 C-0.875 11.5 -0.875 11.5 -3 14 C-6.39189904 14.63954999 -9.61317713 14.66845188 -13 14 C-14.78125 12.68359375 -14.78125 12.68359375 -16 11 C-16.59059604 6.93965219 -16.66760547 4.89781425 -14.1875 1.5625 C-9.50676177 -0.73197952 -5.12149648 -0.32289645 0 0 Z " fill="#111015" transform="translate(77,141)"/>
<path d="M0 0 C0 0.66 0 1.32 0 2 C-0.556875 2.12375 -1.11375 2.2475 -1.6875 2.375 C-4.22114364 3.05976855 -6.57921032 3.99133763 -9 5 C-9 6.32 -9 7.64 -9 9 C-6.69 9 -4.38 9 -2 9 C-2 10.32 -2 11.64 -2 13 C-5.40424088 15.09491746 -8.03414842 15.49573145 -12 15 C-14.375 13.4375 -14.375 13.4375 -16 11 C-16.5625 7.5 -16.5625 7.5 -16 4 C-11.96720601 -1.4234126 -6.12541843 -0.386191 0 0 Z " fill="#141318" transform="translate(194,141)"/>
<path d="M0 0 C0 0.33 0 0.66 0 1 C-2.97 1.66 -5.94 2.32 -9 3 C-8.67 4.65 -8.34 6.3 -8 8 C-7.01 8.33 -6.02 8.66 -5 9 C-5 9.66 -5 10.32 -5 11 C-4.34 11.33 -3.68 11.66 -3 12 C-6.05693322 13.52846661 -8.62984547 13.23242445 -12 13 C-14.4375 11.9375 -14.4375 11.9375 -16 10 C-16.5625 6.5 -16.5625 6.5 -16 3 C-11.88669125 -1.39698521 -5.56457545 -0.26312353 0 0 Z " fill="#0F0E13" transform="translate(104,182)"/>
<path d="M0 0 C2.01822917 0.06510417 4.03645833 0.13020833 6.0546875 0.1953125 C5.3046875 4.9453125 5.3046875 4.9453125 3.0546875 7.1953125 C-0.0703125 7.3203125 -0.0703125 7.3203125 -2.9453125 7.1953125 C-3.5703125 4.8203125 -3.5703125 4.8203125 -3.9453125 2.1953125 C-1.9453125 0.1953125 -1.9453125 0.1953125 0 0 Z " fill="#EDEDED" transform="translate(187.9453125,143.8046875)"/>
<path d="M0 0 C-0.75 4.75 -0.75 4.75 -3 7 C-6.125 7.125 -6.125 7.125 -9 7 C-9.33 5.35 -9.66 3.7 -10 2 C-6.3558226 -0.4294516 -4.28758728 -0.16179575 0 0 Z " fill="#ECEDED" transform="translate(104,183)"/>
<path d="M0 0 C-0.75 4.75 -0.75 4.75 -3 7 C-6.125 7.125 -6.125 7.125 -9 7 C-9.33 5.35 -9.66 3.7 -10 2 C-6.3558226 -0.4294516 -4.28758728 -0.16179575 0 0 Z " fill="#EEEEEE" transform="translate(77,144)"/>
<path d="M0 0 C2.375 -0.125 2.375 -0.125 5 0 C7 2 7 2 7 6 C3.7 6.33 0.4 6.66 -3 7 C-3 6.34 -3 5.68 -3 5 C-4.65 5 -6.3 5 -8 5 C-8 4.67 -8 4.34 -8 4 C-6.02 4 -4.04 4 -2 4 C-1.34 2.68 -0.68 1.36 0 0 Z " fill="#F4F4F4" transform="translate(187,134)"/>
<path d="M0 0 C2.875 0.5 2.875 0.5 5.875 3.5 C2.905 3.5 -0.065 3.5 -3.125 3.5 C-3.455 4.16 -3.785 4.82 -4.125 5.5 C-3.135 5.83 -2.145 6.16 -1.125 6.5 C-3.435 6.17 -5.745 5.84 -8.125 5.5 C-3.99305556 0.63888889 -3.99305556 0.63888889 0 0 Z " fill="#2C2C31" transform="translate(165.125,128.5)"/>
<path d="M0 0 C1.98 0 3.96 0 6 0 C6 1.65 6 3.3 6 5 C4.02 5 2.04 5 0 5 C0 3.35 0 1.7 0 0 Z " fill="#121115" transform="translate(160,161)"/>
<path d="M0 0 C0.66 0.66 1.32 1.32 2 2 C-1.07617188 2.29296875 -1.07617188 2.29296875 -4.15234375 2.5859375 C-4.76207031 2.72257813 -5.37179688 2.85921875 -6 3 C-6.33 3.66 -6.66 4.32 -7 5 C-6.01 5.33 -5.02 5.66 -4 6 C-5.65 5.67 -7.3 5.34 -9 5 C-9 4.01 -9 3.02 -9 2 C-5.54754176 -0.30163882 -4.05261287 -0.34490322 0 0 Z " fill="#2D2D31" transform="translate(122,129)"/>
<path d="M0 0 C0.66 0.66 1.32 1.32 2 2 C-1.07617188 2.29296875 -1.07617188 2.29296875 -4.15234375 2.5859375 C-4.76207031 2.72257813 -5.37179688 2.85921875 -6 3 C-6.33 3.66 -6.66 4.32 -7 5 C-6.01 5.33 -5.02 5.66 -4 6 C-5.65 5.67 -7.3 5.34 -9 5 C-9 4.01 -9 3.02 -9 2 C-5.54754176 -0.30163882 -4.05261287 -0.34490322 0 0 Z " fill="#2E2E32" transform="translate(105,129)"/>
<path d="M0 0 C2.31 0 4.62 0 7 0 C7.33 1.98 7.66 3.96 8 6 C7.34 4.68 6.68 3.36 6 2 C4.68 2 3.36 2 2 2 C1.67 2.66 1.34 3.32 1 4 C0.67 2.68 0.34 1.36 0 0 Z " fill="#2A2A2D" transform="translate(60,169)"/>
<path d="M0 0 C-0.99 0.495 -0.99 0.495 -2 1 C-2.33 1.99 -2.66 2.98 -3 4 C-3.99 4 -4.98 4 -6 4 C-6 3.34 -6 2.68 -6 2 C-6.99 1.67 -7.98 1.34 -9 1 C-3.375 -1.125 -3.375 -1.125 0 0 Z " fill="#27272A" transform="translate(105,189)"/>
<path d="M0 0 C0.556875 0.7115625 0.556875 0.7115625 1.125 1.4375 C3.62646962 3.52205802 5.81593418 3.64621491 9 4 C9 4.33 9 4.66 9 5 C6.69 5.66 4.38 6.32 2 7 C2 6.34 2 5.68 2 5 C1.34 5 0.68 5 0 5 C0 3.35 0 1.7 0 0 Z " fill="#525253" transform="translate(38,130)"/>
</svg>
